<svg xmlns="http://www.w3.org/2000/svg" viewBox="0 0 50 50">
  <defs>
    <style>
      .devops__path_1 {
        fill: #b6131b;
      }

      .devops__path_2 {
        fill: #890e14;
      }

      .devops__path_3 {
        fill: #fff;
      }
    </style>
  </defs>
  <title>SR</title>
  <g id="Layer_1" data-name="Layer 1">
    <g>
      <circle class="devops__path_1" cx="25" cy="25" r="25"/>
      <path class="devops__path_2" d="M30.49,17l-4.29-.36-.8.8H19.68l-5.81,1.46L1,31.83A25,25,0,0,0,18.18,49.05L35.9,31.33l.73-2.79L37.19,24s-2-4.7-2.1-4.8S30.49,17,30.49,17Z"/>
      <g>
        <polygon class="devops__path_3" points="30.77 21.46 24.82 22.6 28.36 25 30.77 21.46"/>
        <polygon class="devops__path_3" points="19.23 28.54 25.18 27.4 21.64 25 19.23 28.54"/>
        <path class="devops__path_3" d="M29.5,16a9.06,9.06,0,0,0-3.3.65,10.27,10.27,0,0,1,2,1.77,6.72,6.72,0,1,1-5,8.8L21,28a9,9,0,1,0,8.5-12Z"/>
        <path class="devops__path_3" d="M21.84,31.58a6.72,6.72,0,1,1,5-8.8L29,22a9,9,0,1,0-8.5,12,9.12,9.12,0,0,0,3.31-.65A10.32,10.32,0,0,1,21.84,31.58Z"/>
      </g>
    </g>
  </g>
</svg>
