<svg xmlns="http://www.w3.org/2000/svg" viewBox="0 0 64 64">
  <defs>
    <style>
      .email__path {
        fill: #6e6e70;
      }
    </style>
  </defs>
  <title>SR</title>
  <g id="Layer_1" data-name="Layer 1">
    <path class="email__path" d="M26.36,31.89,18.2,40.24V24ZM34.81,35a3.78,3.78,0,0,1-5.53,0l-1.4-1.44-8.11,8.3H44.25l-8.06-8.26Zm11,5.23V24.18L37.8,32ZM64,32A32,32,0,1,1,32,0,32,32,0,0,1,64,32ZM48.09,44.15V19.85H15.92v24.3ZM30.71,33.22a1.61,1.61,0,0,0,2.68,0L44,22.59c.13-.12.25-.25.44-.45H19.8c.17.19.28.32.41.44Z"/>
  </g>
</svg>
