<svg xmlns="http://www.w3.org/2000/svg" viewBox="0 0 64 64">
  <defs>
    <style>
      .github__path {
        fill: #6e6e70;
      }
    </style>
  </defs>
  <title>SR</title>
  <g id="Layer_1" data-name="Layer 1">
    <path class="github__path" d="M32,0A32,32,0,1,0,64,32,32,32,0,0,0,32,0Zm6.54,52.09c-1,.2-1.42-.44-1.42-1s0-2.9,0-5.66a4.92,4.92,0,0,0-1.4-3.82c4.59-.52,9.42-2.26,9.42-10.19a8,8,0,0,0-2.12-5.54,7.4,7.4,0,0,0-.21-5.46s-1.73-.55-5.67,2.12a19.47,19.47,0,0,0-10.33,0c-3.94-2.67-5.68-2.12-5.68-2.12a7.44,7.44,0,0,0-.2,5.46,8,8,0,0,0-2.12,5.54c0,7.91,4.82,9.68,9.4,10.2a4.39,4.39,0,0,0-1.31,2.76c-1.18.53-4.17,1.44-6-1.71a4.32,4.32,0,0,0-3.16-2.13s-2,0-.15,1.25a5.49,5.49,0,0,1,2.3,3s1.21,3.69,7,2.44c0,1.72,0,3.35,0,3.84s-.38,1.18-1.41,1a20.63,20.63,0,1,1,13.06,0ZM26.36,45.68c-.24,0-.46-.06-.49-.23s.14-.34.38-.38.47.06.5.22S26.6,45.63,26.36,45.68Zm-1.19-.12c0,.17-.19.32-.43.32s-.45-.13-.45-.3.2-.31.45-.32.43.13.43.3Zm-1.68-.12c0,.16-.29.23-.52.16s-.39-.26-.33-.42a.4.4,0,0,1,.51-.17C23.39,45.09,23.53,45.27,23.49,45.44ZM22,44.77a.39.39,0,0,1-.53-.08.41.41,0,0,1-.12-.53.39.39,0,0,1,.53.08c.18.17.24.41.12.53Zm-1.12-1.15c-.12.09-.33,0-.46-.18a.37.37,0,0,1,0-.49c.13-.09.34,0,.46.17s.13.41,0,.5ZM20,42.43a.32.32,0,0,1-.42-.09c-.13-.15-.16-.34-.06-.43s.29,0,.42.09.16.34.06.43Zm-.84-.93c0,.1-.2.13-.35.06s-.23-.2-.18-.31.2-.13.35-.06.24.21.18.31Z"/>
  </g>
</svg>
