<svg xmlns="http://www.w3.org/2000/svg" viewBox="0 0 64 64">
  <defs>
    <style>
      .linkedin_path {
        fill: #6e6e70;
      }
    </style>
  </defs>
  <title>SR</title>
  <g id="Layer_1" data-name="Layer 1">
    <path class="linkedin_path" d="M32,0A32,32,0,1,0,64,32,32,32,0,0,0,32,0ZM17.24,44.9V24.62h6.23V44.9ZM20.4,21.7A3.64,3.64,0,1,1,24,18.07,3.63,3.63,0,0,1,20.4,21.7ZM47.25,44.9H41v-11a7.27,7.27,0,0,0-.41-2.49,2.75,2.75,0,0,0-2.41-1.78,5,5,0,0,0-2.2.28,3.15,3.15,0,0,0-1.88,2.47,10,10,0,0,0-.21,1.89c0,3.41,0,6.82,0,10.23v.44H27.62V24.62h6v2.81c.13-.11.21-.15.24-.21a5.92,5.92,0,0,1,2.58-2.4,7.23,7.23,0,0,1,2.65-.73,10,10,0,0,1,3.13.23,6,6,0,0,1,2.51,1.17,6.59,6.59,0,0,1,2.22,4,10.86,10.86,0,0,1,.28,2.2c.05,4.35.06,8.71.08,13.07A.36.36,0,0,1,47.25,44.9Z"/>
  </g>
</svg>
