<svg xmlns="http://www.w3.org/2000/svg" viewBox="0 0 64 64">
  <defs>
    <style>
      .rss_path {
        fill: #6e6e70;
      }
    </style>
  </defs>
  <title>SR</title>
  <g id="Layer_1" data-name="Layer 1">
    <path class="rss_path" d="M32,0A32,32,0,1,0,64,32,32,32,0,0,0,32,0ZM23,44.73a3.95,3.95,0,1,1,4-3.94A3.94,3.94,0,0,1,23,44.73Zm15.71,0,0,.06c-.22,0-5.5,0-5.69,0a.78.78,0,0,1,0-.16c0-.37,0-.74-.07-1.11A12.19,12.19,0,0,0,32.45,41,14,14,0,0,0,19.19,30.8H19c0-.05,0-.11,0-.16V25.15a.23.23,0,0,1,.21,0l1.3.06a13.59,13.59,0,0,1,1.43.16,18.57,18.57,0,0,1,2.56.57,19.36,19.36,0,0,1,6.92,3.65,19.57,19.57,0,0,1,6.62,10.32,18.43,18.43,0,0,1,.47,2.44,21.65,21.65,0,0,1,.16,2.27v.12Zm10.1.05H43.17l-.06,0c0-.06,0-.13,0-.2,0-.55,0-1.1-.07-1.65s-.11-1.12-.19-1.68a23.29,23.29,0,0,0-.6-2.85A24.24,24.24,0,0,0,30,23.33a23.84,23.84,0,0,0-5.75-2.09c-.69-.15-1.39-.27-2.1-.37a28.08,28.08,0,0,0-2.89-.21h-.22a.68.68,0,0,1,0-.14V15.27c0-.09,0-.18,0-.29a29.21,29.21,0,0,1,14.64,3.85,29.78,29.78,0,0,1,12.1,12.82,28.94,28.94,0,0,1,3,13.09Z"/>
  </g>
</svg>
