<svg xmlns="http://www.w3.org/2000/svg" viewBox="0 0 48 48">
  <defs>
    <style>
      .site-logo-icon-only_path_1 {
        fill: #b6131b;
      }

      .site-logo-icon-only_path_2 {
        fill: #890e14;
      }

      .site-logo-icon-only_path_3 {
        fill: #fff;
      }
    </style>
  </defs>
  <title>SR</title>
  <g id="Layer_1" data-name="Layer 1">
    <g>
      <g>
        <circle class="site-logo-icon-only_path_1" cx="24" cy="24" r="24"/>
        <path class="site-logo-icon-only_path_2" d="M34.64,27l3-3,0-8.22L35.84,14.5l-10.75-.94L22.9,15.39,10.32,14.5,0,24.8A24,24,0,0,0,24,48c.38,0,.75,0,1.13,0L38.66,34.44,37,32.69Z"/>
      </g>
      <g>
        <path class="site-logo-icon-only_path_3" d="M19.62,23.08h-7a1.45,1.45,0,0,1-1.44-1.44v-4.8a1.45,1.45,0,0,1,1.44-1.45H22.9V13.56H12.62a3.29,3.29,0,0,0-3.28,3.28v4.8a3.29,3.29,0,0,0,3.28,3.28h7a1.45,1.45,0,0,1,1.45,1.44v4.8a1.45,1.45,0,0,1-1.45,1.45h-7a1.45,1.45,0,0,1-1.44-1.45V28.21H9.34v2.95a3.29,3.29,0,0,0,3.28,3.28h7a3.28,3.28,0,0,0,3.28-3.28v-4.8A3.29,3.29,0,0,0,19.62,23.08Z"/>
        <path class="site-logo-icon-only_path_3" d="M38.66,21.64v-4.8a3.28,3.28,0,0,0-3.28-3.28H25.09v1.83H35.38a1.44,1.44,0,0,1,1.44,1.45v4.8a1.44,1.44,0,0,1-1.44,1.44H26a.92.92,0,0,0-.92.92V34.44h1.83V24.92h4.2l5.05,9.52h2.48l-5.17-9.52h1.89A3.28,3.28,0,0,0,38.66,21.64Z"/>
      </g>
    </g>
  </g>
</svg>
