<svg xmlns="http://www.w3.org/2000/svg" viewBox="0 0 64 64">
  <defs>
    <style>
      .twitter_path {
        fill: #6e6e70;
      }
    </style>
  </defs>
  <title>SR</title>
  <g id="Layer_1" data-name="Layer 1">
    <path class="twitter_path" d="M32,0A32,32,0,1,0,64,32,32,32,0,0,0,32,0ZM48.65,23.91c0,.36,0,.71,0,1.07,0,10.89-8.29,23.45-23.45,23.45h0a23.4,23.4,0,0,1-12.64-3.7,16,16,0,0,0,2,.12,16.6,16.6,0,0,0,10.24-3.53,8.26,8.26,0,0,1-7.7-5.73,8.21,8.21,0,0,0,3.72-.14,8.25,8.25,0,0,1-6.61-8.08v-.1a8.32,8.32,0,0,0,3.74,1,8.26,8.26,0,0,1-2.55-11,23.38,23.38,0,0,0,17,8.61,8.24,8.24,0,0,1,14-7.51,16.7,16.7,0,0,0,5.24-2A8.32,8.32,0,0,1,48,21a16.94,16.94,0,0,0,4.74-1.3A16.82,16.82,0,0,1,48.65,23.91Z"/>
  </g>
</svg>
